<?xml version="1.0" encoding="UTF-8" standalone="no"?>
<svg
   height="16"
   viewBox="0 0 16 16"
   width="16"
   version="1.1"
   id="svg1"
   sodipodi:docname="MovementSensor2D.svg"
   xml:space="preserve"
   inkscape:version="1.3.2 (091e20e, 2023-11-25, custom)"
   xmlns:inkscape="http://www.inkscape.org/namespaces/inkscape"
   xmlns:sodipodi="http://sodipodi.sourceforge.net/DTD/sodipodi-0.dtd"
   xmlns="http://www.w3.org/2000/svg"
   xmlns:svg="http://www.w3.org/2000/svg"><defs
     id="defs1" /><sodipodi:namedview
     id="namedview1"
     pagecolor="#ffffff"
     bordercolor="#000000"
     borderopacity="0.25"
     inkscape:showpageshadow="2"
     inkscape:pageopacity="0.0"
     inkscape:pagecheckerboard="true"
     inkscape:deskcolor="#d1d1d1"
     inkscape:zoom="45.254834"
     inkscape:cx="0.88388348"
     inkscape:cy="7.8997086"
     inkscape:window-width="2560"
     inkscape:window-height="1387"
     inkscape:window-x="-8"
     inkscape:window-y="-8"
     inkscape:window-maximized="1"
     inkscape:current-layer="svg1" /><circle
     cx="6.6766601"
     cy="7.3753743"
     r="5"
     fill="none"
     stroke-width="2"
     stroke="#8da5f3"
     id="circle1"
     style="stroke:#8da5f3;stroke-opacity:1" /><path
     d="M 4.68907,7.1265702 C 4.5655,7.1577012 4.47327,7.2545552 4.45178,7.3756219 4.44728,7.4041579 4.44368,7.6194851 4.44458,7.8659425 V 8.306107 L 4.38727,8.33032 C 4.29951,8.365776 4.205491,8.429768 4.125797,8.5067316 3.989691,8.6381756 3.908207,8.789509 3.875076,8.9737037 c -0.01164,0.066587 -0.01343,0.299208 -0.01343,1.8376213 0,1.538414 0.0018,1.771034 0.01343,1.837621 0.03313,0.184194 0.114615,0.335528 0.250721,0.466972 0.0788,0.07611 0.172819,0.140091 0.263257,0.179006 l 0.0591,0.02508 -0.0027,0.434113 c -8.97e-4,0.241268 0.0018,0.457459 0.0063,0.48686 0.01701,0.107232 0.07701,0.185924 0.176401,0.233486 0.04567,0.02162 0.06268,0.02507 0.128942,0.02507 0.06358,0 0.08507,-0.0043 0.127151,-0.02335 0.09223,-0.04152 0.157597,-0.123662 0.177296,-0.222244 0.0054,-0.02768 0.0089,-0.217921 0.0089,-0.465242 v -0.418549 l 0.125361,0.0026 0.126256,0.0026 -8.97e-4,0.406438 c 0,0.242998 0.0036,0.428922 0.0089,0.461785 0.01791,0.104638 0.08059,0.185924 0.179086,0.232621 0.04119,0.01903 0.06178,0.02248 0.125361,0.02248 0.06358,8.69e-4 0.08417,-0.0036 0.128046,-0.02248 0.06716,-0.03027 0.13342,-0.09599 0.160283,-0.159982 0.0206,-0.05016 0.0206,-0.05189 0.02328,-0.497237 l 0.0027,-0.447948 h 0.128942 0.128943 l 0.0027,0.455731 c 0.0027,0.447946 0.0027,0.457459 0.02239,0.497237 0.02686,0.05794 0.09492,0.12366 0.154015,0.151333 0.04209,0.01988 0.06178,0.02335 0.126256,0.02335 0.06447,8.69e-4 0.08418,-0.0036 0.129837,-0.02335 0.06985,-0.03112 0.12178,-0.08216 0.154015,-0.147873 l 0.02508,-0.05276 0.0027,-0.452271 0.0027,-0.451406 h 0.12895 0.128942 l 0.0027,0.45227 0.0027,0.451407 0.02955,0.05794 c 0.116406,0.228299 0.448612,0.22311 0.56054,-0.0095 0.01791,-0.03891 0.01881,-0.05101 0.02149,-0.495508 L 7.70397,13.37103 H 7.832928 7.96187 l 0.0028,0.452271 0.0028,0.451407 0.02955,0.05794 c 0.116407,0.228298 0.4486129,0.223109 0.5605434,-0.0095 0.01791,-0.03891 0.0188,-0.05101 0.02149,-0.496375 l 0.0028,-0.455729 H 8.710796 8.839739 l 0.0028,0.447083 c 0.0028,0.444489 0.0028,0.447948 0.02328,0.497239 0.02776,0.06572 0.09043,0.129713 0.158492,0.159982 0.04567,0.01988 0.06537,0.02421 0.129837,0.02335 0.06447,0 0.08418,-0.0036 0.127151,-0.02422 0.0985,-0.04583 0.162073,-0.128849 0.178192,-0.23262 0.0044,-0.0294 0.0081,-0.236079 0.0081,-0.460054 l -0.0013,-0.406403 h 0.126257 0.126255 l -8.88e-4,0.406438 c 0,0.243 0.0035,0.428924 0.0089,0.461784 0.01791,0.105495 0.0797,0.185924 0.177296,0.231756 0.04298,0.01988 0.06268,0.02335 0.127151,0.02335 0.06358,8.69e-4 0.08418,-0.0036 0.12715,-0.02248 0.09313,-0.04149 0.157597,-0.122796 0.177297,-0.222243 0.0053,-0.02768 0.009,-0.217922 0.009,-0.465244 v -0.418535 l 0.132524,0.0026 0.131629,0.0026 0.0019,0.415086 c 8.89e-4,0.228297 0.0035,0.434975 0.0062,0.459188 0.0081,0.08994 0.0788,0.180736 0.175505,0.226568 0.04119,0.01903 0.06178,0.02248 0.12536,0.02248 0.09223,8.71e-4 0.155806,-0.02421 0.218485,-0.08388 0.09222,-0.08994 0.09491,-0.106364 0.09491,-0.620035 v -0.423735 h 0.129839 0.128942 l 0.0028,0.456596 c 0.0028,0.447082 0.0028,0.456594 0.02238,0.496374 0.02686,0.05707 0.09134,0.120202 0.152225,0.149603 0.04477,0.02162 0.06177,0.02507 0.128048,0.02507 0.06448,0 0.08418,-0.0036 0.130731,-0.02421 0.06804,-0.0294 0.120888,-0.08043 0.15312,-0.147876 l 0.02509,-0.05189 0.0027,-0.452271 0.0027,-0.451407 h 0.124466 0.124465 l 0.0027,0.452272 0.0027,0.451406 0.02955,0.05794 c 0.116405,0.228297 0.448611,0.223108 0.560542,-0.0095 0.01791,-0.03891 0.01881,-0.05101 0.02149,-0.495507 l 0.0027,-0.456598 h 0.128943 0.129837 v 0.429791 c 0,0.464375 0.0019,0.483401 0.04835,0.559499 0.02955,0.04842 0.07701,0.0882 0.139687,0.116748 0.04119,0.01901 0.06177,0.02248 0.125359,0.02248 0.06358,-8.72e-4 0.08418,-0.0043 0.125361,-0.02421 0.06448,-0.0294 0.121781,-0.08475 0.151329,-0.144418 l 0.02328,-0.04756 0.0027,-0.456595 0.0027,-0.45573 h 0.128943 0.129839 v 0.417681 c 0,0.264617 0.0036,0.436705 0.0098,0.4687 0.01881,0.09858 0.07432,0.169494 0.167445,0.213597 0.05373,0.02594 0.06717,0.02854 0.136106,0.02854 0.06448,-8.71e-4 0.08418,-0.0043 0.127153,-0.02507 0.0985,-0.04497 0.161178,-0.127987 0.178189,-0.232621 0.0053,-0.032 0.008,-0.233487 0.0061,-0.487727 l -0.0027,-0.434112 0.0591,-0.02508 c 0.09133,-0.03891 0.184458,-0.102902 0.263257,-0.179005 0.136106,-0.13231 0.217589,-0.282778 0.250722,-0.466972 0.01166,-0.06659 0.01343,-0.299209 0.01343,-1.837621 0,-1.5384123 -0.0019,-1.771034 -0.01343,-1.8376207 C 15.27686,8.7896134 15.195371,8.6382798 15.059269,8.5068359 14.980469,8.4307369 14.886451,8.3667442 14.796012,8.32783 l -0.0591,-0.025078 0.0027,-0.4341109 c 8.88e-4,-0.2412689 -0.0019,-0.4574596 -0.0061,-0.4868615 -0.017,-0.1072306 -0.07701,-0.186789 -0.176401,-0.2326213 -0.04567,-0.021619 -0.06358,-0.025078 -0.128941,-0.025078 -0.06358,-8.627e-4 -0.08417,0.00346 -0.127154,0.022484 -0.09222,0.041508 -0.157595,0.1236611 -0.177294,0.222244 -0.0053,0.027672 -0.009,0.2179203 -0.009,0.4652425 v 0.4185453 l -0.127151,-0.00259 -0.128047,-0.00259 -0.0044,-0.4583245 -0.0044,-0.4583241 -0.02418,-0.044967 c -0.03223,-0.057939 -0.08775,-0.1098247 -0.150435,-0.1392268 -0.04119,-0.019025 -0.06177,-0.022484 -0.12536,-0.023349 -0.06895,0 -0.08238,0.00259 -0.136105,0.028537 -0.09043,0.042374 -0.145954,0.1124191 -0.167445,0.2075431 -0.0062,0.030266 -0.0098,0.1885183 -0.0098,0.4687015 V 8.2515532 H 13.107562 12.97862 L 12.97592,7.7949583 C 12.97322,7.3478759 12.97322,7.3383636 12.95354,7.2985845 12.92668,7.2406455 12.85862,7.1749233 12.799524,7.1472508 c -0.04209,-0.01989 -0.06177,-0.023349 -0.126256,-0.024213 -0.06895,0 -0.08238,0.00259 -0.136104,0.028536 -0.06895,0.032861 -0.116406,0.079559 -0.149538,0.1478744 l -0.02328,0.048426 -0.0027,0.4514062 -0.0027,0.4522711 H 12.23387 12.108509 V 7.8123272 c 0,-0.4332461 0,-0.4392996 -0.0197,-0.4937796 -0.05283,-0.1444155 -0.210428,-0.2257032 -0.36265,-0.1876536 -0.09492,0.023349 -0.159388,0.07437 -0.205949,0.1608459 l -0.02509,0.047563 -0.0028,0.4557301 -0.0028,0.4565949 h -0.128688 -0.129837 v -0.430653 c 0,-0.4635129 -0.0019,-0.4825378 -0.04835,-0.5586368 -0.02955,-0.048426 -0.07701,-0.088206 -0.139688,-0.1167429 -0.04119,-0.019025 -0.06178,-0.022484 -0.12536,-0.022484 -0.06358,8.627e-4 -0.08418,0.00432 -0.12536,0.024213 -0.06447,0.029403 -0.121779,0.084747 -0.151328,0.1444155 l -0.02328,0.047563 -0.0028,0.4557302 -0.0028,0.4565948 h -0.13309 -0.134316 V 7.8339464 c 0,-0.2646176 -0.0035,-0.4367053 -0.0098,-0.4687017 -0.01882,-0.098583 -0.07433,-0.1694935 -0.16745,-0.2135964 -0.05373,-0.025943 -0.06716,-0.028536 -0.136107,-0.028536 -0.06447,8.627e-4 -0.08417,0.00432 -0.127151,0.024213 -0.06446,0.030266 -0.119988,0.083882 -0.149537,0.1444153 l -0.02328,0.047563 -0.0044,0.4540005 -0.0044,0.4540006 -0.127152,0.00259 -0.127152,0.00259 -0.0028,-0.4479473 -0.0028,-0.4479471 -0.02955,-0.059668 c -0.03493,-0.07092 -0.0797,-0.1150225 -0.151332,-0.1487482 -0.04387,-0.020754 -0.06268,-0.024213 -0.128047,-0.024213 -0.06358,-8.648e-4 -0.08418,0.00346 -0.127153,0.022484 -0.09223,0.041507 -0.157594,0.1236611 -0.177295,0.2222441 -0.0053,0.027672 -0.009,0.2179202 -0.009,0.4643775 V 8.2516264 H 8.710458 8.5806215 V 7.806274 c 0,-0.5119398 0.0019,-0.4998331 -0.08148,-0.5880388 -0.06537,-0.068317 -0.1262565,-0.094259 -0.222962,-0.094259 -0.06358,-8.648e-4 -0.08418,0.00346 -0.1262561,0.022484 -0.07073,0.031131 -0.119093,0.076964 -0.153119,0.1435505 l -0.02954,0.057939 -0.0028,0.4514061 -0.0028,0.4522712 h -0.128762 -0.128942 l -0.0027,-0.4565944 c -0.0027,-0.4470824 -0.0027,-0.4565949 -0.02238,-0.496374 -0.02686,-0.057939 -0.09492,-0.1236611 -0.154015,-0.1513336 -0.04209,-0.019889 -0.06178,-0.023348 -0.126256,-0.023348 -0.06358,-8.627e-4 -0.08417,0.00346 -0.127151,0.022485 -0.07074,0.031996 -0.125361,0.083018 -0.155805,0.1478745 l -0.02596,0.053616 -0.0027,0.4514063 -0.0027,0.4522711 h -0.12895 -0.129838 l -8.88e-4,-0.4436243 c 0,-0.4358407 0,-0.4436236 -0.0197,-0.492915 -0.0573,-0.1426865 -0.221169,-0.224839 -0.368021,-0.1841952 -0.09223,0.025943 -0.15491,0.076099 -0.199681,0.160846 l -0.02507,0.047563 -0.0027,0.4557301 -0.0027,0.4565948 H 6.077886 5.948048 V 7.8252987 c 0,-0.4591891 -0.0027,-0.4877263 -0.04746,-0.562096 -0.03045,-0.049292 -0.0779,-0.089071 -0.140583,-0.1176078 -0.04119,-0.019025 -0.06178,-0.022484 -0.125361,-0.022484 -0.06447,8.628e-4 -0.08417,0.00432 -0.127151,0.024213 -0.06447,0.030266 -0.119988,0.083882 -0.149537,0.1444155 l -0.02328,0.047563 -0.0045,0.4540006 -0.0045,0.4540004 -0.127152,0.00259 -0.128047,0.00259 V 7.8339343 c 0,-0.4289224 -0.0045,-0.4911853 -0.03582,-0.5508541 -0.05015,-0.092522 -0.146859,-0.1539199 -0.256102,-0.1599733 -0.03403,-0.00174 -0.07432,-8.627e-4 -0.08954,0.00346 z"
     id="path1"
     style="fill:#8da5f3;fill-opacity:1;stroke:#597eee;stroke-width:0.25;stroke-dasharray:none;stroke-opacity:1" /></svg>
